<svg width="84" height="16" viewBox="0 0 84 16" fill="none" xmlns="http://www.w3.org/2000/svg">
<g clip-path="url(#clip0_652_6887)">
<mask id="mask0_652_6887" style="mask-type:luminance" maskUnits="userSpaceOnUse" x="0" y="0" width="16" height="16">
<path d="M16 0H0V16H16V0Z" fill="white"/>
</mask>
<g mask="url(#mask0_652_6887)">
<path d="M16 0H0V16H16V0Z" fill="#00B890"/>
<path d="M11.9818 13.8957L10.572 9.47168L7.96777 11.3401L11.7216 14.0848C11.8526 14.1822 12.0324 14.053 11.9818 13.8976V13.8957Z" fill="url(#paint0_linear_652_6887)"/>
<path d="M3.93022 13.8449L5.34749 9.55561C5.36995 9.48634 5.34749 9.40958 5.28758 9.36651L1.65359 6.68737C1.52254 6.59001 1.59181 6.3822 1.75469 6.3822L6.3978 6.40092H6.40155L7.87686 1.99745C7.92928 1.84206 8.14833 1.84393 8.19888 1.99933L9.56186 6.28484C9.58432 6.35411 9.64798 6.40279 9.72099 6.40279L14.248 6.44023C14.4109 6.44023 14.4783 6.64992 14.3454 6.74541L10.5747 9.46949L10.5073 9.51816L10.468 9.54625L7.96672 11.3343L4.18858 14.034C4.05565 14.1295 3.87967 13.9984 3.93022 13.843V13.8449Z" fill="white"/>
</g>
<mask id="mask1_652_6887" style="mask-type:luminance" maskUnits="userSpaceOnUse" x="17" y="0" width="16" height="16">
<path d="M33 0H17V16H33V0Z" fill="white"/>
</mask>
<g mask="url(#mask1_652_6887)">
<path d="M33 0H17V16H33V0Z" fill="#00B890"/>
<path d="M28.9818 13.8957L27.572 9.47168L24.9678 11.3401L28.7216 14.0848C28.8526 14.1822 29.0324 14.053 28.9818 13.8976V13.8957Z" fill="url(#paint1_linear_652_6887)"/>
<path d="M20.9302 13.8449L22.3475 9.55561C22.37 9.48634 22.3475 9.40958 22.2876 9.36651L18.6536 6.68737C18.5225 6.59001 18.5918 6.3822 18.7547 6.3822L23.3978 6.40092H23.4015L24.8769 1.99745C24.9293 1.84206 25.1483 1.84393 25.1989 1.99933L26.5619 6.28484C26.5843 6.35411 26.648 6.40279 26.721 6.40279L31.248 6.44023C31.4109 6.44023 31.4783 6.64992 31.3454 6.74541L27.5747 9.46949L27.5073 9.51816L27.468 9.54625L24.9667 11.3343L21.1886 14.034C21.0557 14.1295 20.8797 13.9984 20.9302 13.843V13.8449Z" fill="white"/>
</g>
<mask id="mask2_652_6887" style="mask-type:luminance" maskUnits="userSpaceOnUse" x="34" y="0" width="16" height="16">
<path d="M50 0H34V16H50V0Z" fill="white"/>
</mask>
<g mask="url(#mask2_652_6887)">
<path d="M50 0H34V16H50V0Z" fill="#00B890"/>
<path d="M45.9818 13.8957L44.572 9.47168L41.9678 11.3401L45.7216 14.0848C45.8526 14.1822 46.0324 14.053 45.9818 13.8976V13.8957Z" fill="url(#paint2_linear_652_6887)"/>
<path d="M37.9302 13.8449L39.3475 9.55561C39.37 9.48634 39.3475 9.40958 39.2876 9.36651L35.6536 6.68737C35.5225 6.59001 35.5918 6.3822 35.7547 6.3822L40.3978 6.40092H40.4015L41.8769 1.99745C41.9293 1.84206 42.1483 1.84393 42.1989 1.99933L43.5619 6.28484C43.5843 6.35411 43.648 6.40279 43.721 6.40279L48.248 6.44023C48.4109 6.44023 48.4783 6.64992 48.3454 6.74541L44.5747 9.46949L44.5073 9.51816L44.468 9.54625L41.9667 11.3343L38.1886 14.034C38.0557 14.1295 37.8797 13.9984 37.9302 13.843V13.8449Z" fill="white"/>
</g>
<mask id="mask3_652_6887" style="mask-type:luminance" maskUnits="userSpaceOnUse" x="51" y="0" width="16" height="16">
<path d="M67 0H51V16H67V0Z" fill="white"/>
</mask>
<g mask="url(#mask3_652_6887)">
<path d="M67 0H51V16H67V0Z" fill="#00B890"/>
<path d="M62.9818 13.8957L61.572 9.47168L58.9678 11.3401L62.7216 14.0848C62.8526 14.1822 63.0324 14.053 62.9818 13.8976V13.8957Z" fill="url(#paint3_linear_652_6887)"/>
<path d="M54.9302 13.8449L56.3475 9.55561C56.37 9.48634 56.3475 9.40958 56.2876 9.36651L52.6536 6.68737C52.5225 6.59001 52.5918 6.3822 52.7547 6.3822L57.3978 6.40092H57.4015L58.8769 1.99745C58.9293 1.84206 59.1483 1.84393 59.1989 1.99933L60.5619 6.28484C60.5843 6.35411 60.648 6.40279 60.721 6.40279L65.248 6.44023C65.4109 6.44023 65.4783 6.64992 65.3454 6.74541L61.5747 9.46949L61.5073 9.51816L61.468 9.54625L58.9667 11.3343L55.1886 14.034C55.0557 14.1295 54.8797 13.9984 54.9302 13.843V13.8449Z" fill="white"/>
</g>
<mask id="mask4_652_6887" style="mask-type:luminance" maskUnits="userSpaceOnUse" x="68" y="0" width="16" height="16">
<path d="M84 0H68V16H84V0Z" fill="white"/>
</mask>
<g mask="url(#mask4_652_6887)">
<path d="M84 0H68V16H84V0Z" fill="#00B890"/>
<path d="M79.9818 13.8957L78.572 9.47168L75.9678 11.3401L79.7216 14.0848C79.8526 14.1822 80.0324 14.053 79.9818 13.8976V13.8957Z" fill="url(#paint4_linear_652_6887)"/>
<path d="M71.9302 13.8449L73.3475 9.55561C73.37 9.48634 73.3475 9.40958 73.2876 9.36651L69.6536 6.68737C69.5225 6.59001 69.5918 6.3822 69.7547 6.3822L74.3978 6.40092H74.4015L75.8769 1.99745C75.9293 1.84206 76.1483 1.84393 76.1989 1.99933L77.5619 6.28484C77.5843 6.35411 77.648 6.40279 77.721 6.40279L82.248 6.44023C82.4109 6.44023 82.4783 6.64992 82.3454 6.74541L78.5747 9.46949L78.5073 9.51816L78.468 9.54625L75.9667 11.3343L72.1886 14.034C72.0557 14.1295 71.8797 13.9984 71.9302 13.843V13.8449Z" fill="white"/>
</g>
</g>
<defs>
<linearGradient id="paint0_linear_652_6887" x1="12.7518" y1="12.9794" x2="8.87732" y2="10.1163" gradientUnits="userSpaceOnUse">
<stop stop-color="white"/>
<stop offset="0.34" stop-color="#FCFCFC"/>
<stop offset="0.52" stop-color="#F4F4F4"/>
<stop offset="0.66" stop-color="#E7E7E7"/>
<stop offset="0.78" stop-color="#D4D4D4"/>
<stop offset="0.89" stop-color="#BBBBBB"/>
<stop offset="0.99" stop-color="#9D9D9D"/>
<stop offset="1" stop-color="#999999"/>
</linearGradient>
<linearGradient id="paint1_linear_652_6887" x1="29.7518" y1="12.9794" x2="25.8773" y2="10.1163" gradientUnits="userSpaceOnUse">
<stop stop-color="white"/>
<stop offset="0.34" stop-color="#FCFCFC"/>
<stop offset="0.52" stop-color="#F4F4F4"/>
<stop offset="0.66" stop-color="#E7E7E7"/>
<stop offset="0.78" stop-color="#D4D4D4"/>
<stop offset="0.89" stop-color="#BBBBBB"/>
<stop offset="0.99" stop-color="#9D9D9D"/>
<stop offset="1" stop-color="#999999"/>
</linearGradient>
<linearGradient id="paint2_linear_652_6887" x1="46.7518" y1="12.9794" x2="42.8773" y2="10.1163" gradientUnits="userSpaceOnUse">
<stop stop-color="white"/>
<stop offset="0.34" stop-color="#FCFCFC"/>
<stop offset="0.52" stop-color="#F4F4F4"/>
<stop offset="0.66" stop-color="#E7E7E7"/>
<stop offset="0.78" stop-color="#D4D4D4"/>
<stop offset="0.89" stop-color="#BBBBBB"/>
<stop offset="0.99" stop-color="#9D9D9D"/>
<stop offset="1" stop-color="#999999"/>
</linearGradient>
<linearGradient id="paint3_linear_652_6887" x1="63.7518" y1="12.9794" x2="59.8773" y2="10.1163" gradientUnits="userSpaceOnUse">
<stop stop-color="white"/>
<stop offset="0.34" stop-color="#FCFCFC"/>
<stop offset="0.52" stop-color="#F4F4F4"/>
<stop offset="0.66" stop-color="#E7E7E7"/>
<stop offset="0.78" stop-color="#D4D4D4"/>
<stop offset="0.89" stop-color="#BBBBBB"/>
<stop offset="0.99" stop-color="#9D9D9D"/>
<stop offset="1" stop-color="#999999"/>
</linearGradient>
<linearGradient id="paint4_linear_652_6887" x1="80.7518" y1="12.9794" x2="76.8773" y2="10.1163" gradientUnits="userSpaceOnUse">
<stop stop-color="white"/>
<stop offset="0.34" stop-color="#FCFCFC"/>
<stop offset="0.52" stop-color="#F4F4F4"/>
<stop offset="0.66" stop-color="#E7E7E7"/>
<stop offset="0.78" stop-color="#D4D4D4"/>
<stop offset="0.89" stop-color="#BBBBBB"/>
<stop offset="0.99" stop-color="#9D9D9D"/>
<stop offset="1" stop-color="#999999"/>
</linearGradient>
<clipPath id="clip0_652_6887">
<rect width="84" height="16" fill="white"/>
</clipPath>
</defs>
</svg>
