<svg width="128" height="129" viewBox="0 0 128 129" fill="none" xmlns="http://www.w3.org/2000/svg">
<path d="M127.607 65.4692L125.229 62.9096C124.732 62.3749 124.702 61.5564 125.159 60.987L127.346 58.2573C127.854 57.6232 127.752 56.6968 127.118 56.1885L124.393 54.0026C123.824 53.5458 123.675 52.7409 124.044 52.1107L125.811 49.0914C126.221 48.39 125.986 47.4885 125.285 47.0778L122.271 45.3121C121.641 44.9431 121.377 44.1682 121.65 43.4912L122.958 40.2466C123.262 39.4929 122.898 38.6353 122.145 38.331L118.906 37.0232C118.229 36.75 117.855 36.0219 118.027 35.312L118.849 31.9116C119.04 31.1217 118.555 30.3262 117.766 30.135L114.371 29.3128C113.662 29.141 113.186 28.475 113.252 27.7483L113.571 24.2642C113.645 23.4548 113.05 22.7384 112.241 22.6642L108.763 22.3453C108.036 22.2787 107.468 21.6892 107.428 20.9603L107.237 17.467C107.192 16.6555 106.499 16.0334 105.687 16.078L102.2 16.2693C101.472 16.3091 100.824 15.8088 100.679 15.0935L99.9809 11.6653C99.8188 10.8688 99.0421 10.3546 98.2459 10.517L94.8236 11.2144C94.1086 11.3599 93.3951 10.9595 93.1468 10.2727L91.9575 6.9827C91.6813 6.21835 90.838 5.82265 90.074 6.09913L86.7899 7.2877C86.1038 7.53602 85.3395 7.24345 84.9943 6.60053L83.339 3.51865C82.9543 2.80258 82.0627 2.53415 81.347 2.91888L78.2706 4.57337C77.628 4.91897 76.8293 4.74087 76.3937 4.15499L74.3077 1.3474C73.8231 0.69497 72.9019 0.55929 72.2498 1.04423L69.447 3.12916C68.8615 3.56473 68.0452 3.50512 67.5296 2.98873L65.0573 0.514673C64.4828 -0.0602296 63.5517 -0.0602296 62.9772 0.514673L60.5075 2.9858C59.9915 3.50219 59.1756 3.5618 58.59 3.12624L55.7843 1.03874C55.1322 0.553805 54.211 0.689485 53.7264 1.34192L51.6426 4.14658C51.2074 4.73246 50.4087 4.91056 49.7657 4.56496L46.6861 2.90864C45.9703 2.52391 45.0787 2.79234 44.694 3.50841L43.0406 6.58663C42.6954 7.22955 41.931 7.52213 41.245 7.27381L37.9572 6.08377C37.1932 5.80729 36.3502 6.20299 36.0737 6.96734L34.8859 10.2536C34.6376 10.9401 33.9241 11.3409 33.2091 11.1954L29.7831 10.4972C28.9873 10.3348 28.2105 10.849 28.0481 11.6456L27.3511 15.0701C27.2055 15.7854 26.5579 16.2861 25.8294 16.2459L22.3383 16.0542C21.5271 16.0096 20.8337 16.6317 20.7891 17.4432L20.5978 20.9329C20.558 21.6617 19.99 22.2513 19.2633 22.3178L15.7814 22.6367C14.9724 22.711 14.3767 23.427 14.4509 24.2367L14.7694 27.7169C14.836 28.4439 14.3598 29.1099 13.6507 29.2814L10.2525 30.1043C9.46291 30.2955 8.97798 31.091 9.16888 31.8809L9.99028 35.2776C10.1618 35.9871 9.78767 36.7153 9.1111 36.9888L5.86868 38.2981C5.1153 38.6024 4.75105 39.46 5.05533 40.2137L6.36239 43.4543C6.63558 44.1312 6.37117 44.9062 5.74177 45.2752L2.72463 47.043C2.02356 47.4537 1.78804 48.3552 2.19837 49.0567L3.96294 52.0723C4.33158 52.7025 4.1831 53.5074 3.61368 53.9642L0.885818 56.1526C0.252035 56.661 0.150367 57.5873 0.658344 58.2215L2.84312 60.9482C3.29953 61.5177 3.26954 62.3361 2.7729 62.8708L0.39247 65.4334C-0.16049 66.0287 -0.126479 66.9598 0.468538 67.5135L3.02671 69.8929C3.56102 70.3899 3.65062 71.204 3.237 71.8052L1.25482 74.6874C0.79439 75.357 0.96335 76.2735 1.63261 76.7343L4.50968 78.7154C5.11055 79.1294 5.31754 79.9215 4.99608 80.5769L3.4546 83.7169C3.09656 84.4465 3.39718 85.3282 4.12605 85.6866L7.26058 87.2274C7.91558 87.5492 8.23558 88.3029 8.01249 88.9982L6.94424 92.3295C6.69592 93.1033 7.12198 93.932 7.89546 94.1807L11.2209 95.2486C11.9158 95.4717 12.3418 96.1705 12.2226 96.891L11.6503 100.343C11.5175 101.145 12.0591 101.902 12.8604 102.036L16.3058 102.607C17.0255 102.727 17.5489 103.356 17.5357 104.086L17.4717 107.584C17.4567 108.397 18.1033 109.068 18.9155 109.083L22.4074 109.147C23.137 109.16 23.7463 109.707 23.8391 110.431L24.285 113.901C24.3884 114.707 25.1257 115.277 25.9314 115.173L29.3954 114.727C30.1192 114.634 30.8016 115.086 30.9991 115.789L31.9452 119.157C32.165 119.94 32.9772 120.396 33.7591 120.176L37.1212 119.23C37.8237 119.032 38.5646 119.38 38.862 120.047L40.2879 123.241C40.6192 123.983 41.4889 124.316 42.2305 123.985L45.4192 122.559C46.0855 122.262 46.8689 122.498 47.2602 123.114L49.136 126.067C49.5719 126.753 50.4807 126.955 51.1664 126.519L54.1137 124.644C54.7296 124.253 55.5389 124.372 56.0158 124.924L58.3011 127.572C58.8322 128.187 59.7607 128.255 60.3758 127.724L63.0192 125.44C63.5714 124.963 64.3895 124.963 64.9418 125.44L67.5881 127.727C68.2028 128.258 69.1318 128.19 69.6628 127.575L71.9456 124.93C72.4225 124.377 73.2321 124.258 73.8476 124.65L76.7982 126.527C77.4839 126.963 78.3927 126.76 78.8287 126.074L80.7022 123.125C81.0935 122.509 81.8773 122.273 82.5432 122.57L85.7356 123.997C86.4772 124.329 87.3469 123.996 87.6782 123.254L89.1027 120.063C89.4004 119.396 90.1413 119.049 90.8435 119.246L94.2095 120.193C94.9914 120.413 95.8037 119.957 96.0235 119.174L96.9685 115.81C97.166 115.107 97.8484 114.656 98.5721 114.748L102.04 115.195C102.845 115.298 103.583 114.729 103.686 113.923L104.132 110.456C104.225 109.732 104.834 109.186 105.564 109.172L109.06 109.108C109.872 109.093 110.518 108.423 110.504 107.61L110.44 104.116C110.427 103.386 110.95 102.757 111.67 102.637L115.119 102.065C115.92 101.932 116.462 101.174 116.329 100.372L115.757 96.9243C115.638 96.2042 116.064 95.505 116.759 95.2822L120.088 94.2132C120.862 93.9649 121.287 93.1362 121.039 92.362L119.972 89.0344C119.749 88.3391 120.07 87.5858 120.724 87.2636L123.862 85.721C124.592 85.3626 124.892 84.4805 124.534 83.7513L122.994 80.6145C122.672 79.9592 122.879 79.167 123.48 78.753L126.361 76.7698C127.03 76.309 127.199 75.3925 126.738 74.7229L124.758 71.844C124.345 71.2427 124.434 70.4286 124.969 69.9316L127.53 67.5497C128.125 66.9964 128.159 66.0649 127.606 65.4696L127.607 65.4692Z" fill="#333333"/>
<path d="M108.407 58.2832L109.868 62.7782H114.594L110.77 65.5562L112.231 70.0508L108.407 67.2728L104.584 70.0508L106.044 65.5562L102.221 62.7782H106.947L108.407 58.2832Z" fill="white"/>
<path d="M19.595 58.2832L21.0557 62.7782H25.7818L21.9582 65.5562L23.4185 70.0508L19.595 67.2728L15.7714 70.0508L17.2317 65.5562L13.4082 62.7782H18.1347L19.595 58.2832Z" fill="white"/>
<path d="M28.936 90.696L31.3545 93.8858L27.411 96.8773C27.1565 96.7614 26.8884 96.6027 26.6053 96.4015C26.3223 96.2004 26.0399 95.981 25.7591 95.7429C25.4775 95.5048 25.2142 95.2591 24.9691 95.006C24.7237 94.7525 24.5208 94.5203 24.3609 94.3093C24.1664 94.0529 23.9854 93.7629 23.8168 93.4393C23.6485 93.1152 23.5165 92.77 23.4222 92.4025C23.3274 92.0349 23.2839 91.6491 23.292 91.245C23.2996 90.8409 23.3805 90.4265 23.533 90.0019C23.6855 89.5773 23.9283 89.1498 24.2604 88.7194C24.5928 88.2893 25.0339 87.8654 25.5835 87.4481C26.4195 86.814 27.1949 86.4157 27.9087 86.2544C28.6226 86.0928 29.2798 86.099 29.8807 86.2731C30.4812 86.4472 31.029 86.7471 31.5242 87.1731C32.0194 87.5992 32.4728 88.0837 32.8843 88.6268C33.0785 88.8832 33.2613 89.1633 33.4325 89.4672C33.6033 89.7712 33.7536 90.0549 33.8827 90.3194C34.0118 90.5838 34.15 90.8913 34.2981 91.2428L32.9534 92.2628C32.832 91.915 32.7117 91.6114 32.5921 91.3518C32.4721 91.0921 32.3291 90.8058 32.1631 90.4923C31.9967 90.1789 31.8076 89.8827 31.5962 89.604C31.2989 89.212 30.9837 88.8898 30.6501 88.6378C30.3166 88.3858 29.9556 88.2264 29.5665 88.1591C29.1774 88.0918 28.7568 88.132 28.3048 88.279C27.8524 88.4261 27.3627 88.6996 26.8357 89.0997C26.361 89.4596 25.9939 89.8245 25.7342 90.1939C25.4742 90.5633 25.3045 90.9264 25.2255 91.2837C25.1461 91.6407 25.1523 91.9896 25.2441 92.3297C25.3359 92.6698 25.4932 92.9869 25.7163 93.2813C25.9507 93.5903 26.1581 93.8368 26.3391 94.0204C26.5198 94.204 26.6774 94.3455 26.8123 94.4453C26.9586 94.5598 27.0961 94.6399 27.2252 94.6845L28.9539 93.3731L27.659 91.6652L28.9357 90.6964L28.936 90.696Z" fill="white"/>
<path d="M32.9763 103.026C32.4856 102.64 32.1027 102.215 31.828 101.753C31.5534 101.291 31.3837 100.817 31.3189 100.333C31.2538 99.8493 31.2886 99.3687 31.4235 98.8907C31.5577 98.4131 31.7889 97.9662 32.1158 97.5497L36.0063 92.5972L37.5686 93.8252L33.5381 98.9562C33.3746 99.1647 33.2404 99.3808 33.1362 99.6057C33.0319 99.8303 32.9855 100.062 32.9972 100.299C33.0089 100.537 33.0868 100.779 33.2309 101.025C33.3746 101.27 33.6142 101.525 33.9491 101.788C34.2838 102.051 34.5902 102.22 34.8689 102.294C35.1472 102.369 35.4043 102.379 35.6402 102.324C35.8757 102.268 36.0922 102.162 36.2886 102.004C36.485 101.845 36.6649 101.662 36.8288 101.454L40.8158 96.3787L42.3781 97.6067L38.4877 102.559C38.1603 102.976 37.7826 103.307 37.3543 103.554C36.9257 103.801 36.4689 103.949 35.9833 104.001C35.4976 104.052 34.9998 104.001 34.4897 103.846C33.9795 103.691 33.4748 103.418 32.9767 103.026L32.9763 103.026Z" fill="white"/>
<path d="M46.3815 107.884L42.931 106.388L41.2195 108.197L39.2402 107.338L46.5271 99.6899L48.8055 100.678L48.2112 111.229L46.232 110.37L46.3808 107.883L46.3815 107.884ZM46.4931 105.984C46.5249 105.482 46.5516 105.045 46.5732 104.674C46.5951 104.302 46.6178 103.91 46.6419 103.497C46.6657 103.085 46.6862 102.728 46.7037 102.426L45.4654 103.714C45.3133 103.875 45.1619 104.034 45.0119 104.19C44.8616 104.346 44.7296 104.485 44.6155 104.606C44.5014 104.726 44.3763 104.86 44.2406 105.007L46.4931 105.984Z" fill="white"/>
<path d="M58.4611 113.36L56.2709 112.951L55.8485 109.481C55.817 109.341 55.7735 109.212 55.7179 109.096C55.659 108.998 55.5877 108.904 55.504 108.811C55.4202 108.718 55.2992 108.657 55.1412 108.627L53.9972 108.414L53.2574 112.39L51.3184 112.028L53.1327 102.278L55.9088 102.796C56.4109 102.89 56.8798 103.021 57.3153 103.188C57.7509 103.356 58.1181 103.578 58.418 103.856C58.7175 104.133 58.9311 104.473 59.058 104.877C59.1849 105.281 59.1948 105.771 59.0876 106.348C59.032 106.645 58.9402 106.893 58.8122 107.09C58.6838 107.288 58.5379 107.45 58.3748 107.579C58.2113 107.707 58.0417 107.805 57.8654 107.873C57.6891 107.941 57.5282 107.991 57.383 108.021C57.2378 108.052 57.0725 108.074 56.8871 108.088C57.1193 108.131 57.3047 108.221 57.4433 108.357C57.5816 108.494 57.6873 108.636 57.7608 108.784C57.8343 108.933 57.8881 109.121 57.9228 109.349L58.4611 113.36V113.36ZM55.0936 106.944C55.3167 106.986 55.5361 107.01 55.7512 107.017C55.9666 107.023 56.1641 106.995 56.3444 106.932C56.5243 106.87 56.6816 106.762 56.8158 106.609C56.95 106.456 57.0425 106.245 57.0926 105.975C57.1427 105.706 57.1398 105.477 57.0835 105.288C57.0268 105.1 56.9288 104.942 56.7891 104.815C56.649 104.687 56.4753 104.588 56.2676 104.515C56.0595 104.443 55.8302 104.383 55.5793 104.336L54.7842 104.188L54.2989 106.796L55.094 106.944L55.0936 106.944Z" fill="white"/>
<path d="M67.681 110.968L63.9255 111.153L63.1912 113.533L61.0371 113.639L64.1888 103.554L66.6691 103.432L70.802 113.158L68.648 113.264L67.6818 110.968L67.681 110.968ZM66.9408 109.214C66.7474 108.75 66.578 108.347 66.4332 108.003C66.2884 107.66 66.1355 107.298 65.9746 106.918C65.8137 106.538 65.6744 106.208 65.5562 105.93L65.0154 107.633C64.9499 107.845 64.8844 108.054 64.819 108.261C64.7531 108.468 64.6961 108.65 64.6471 108.809C64.5981 108.967 64.545 109.143 64.4884 109.335L66.9401 109.214H66.9408Z" fill="white"/>
<path d="M81.9787 110.042L79.4849 110.815L73.797 104.778L76.0019 111.894L74.1993 112.453L71.2637 102.979L73.7575 102.206L79.4414 108.229L77.2409 101.127L79.0435 100.568L81.9791 110.042H81.9787Z" fill="white"/>
<path d="M86.6252 96.2744L87.4012 97.6122L84.9469 99.0367L89.1475 106.278L87.4414 107.268L83.2408 100.027L80.7741 101.458L79.998 100.12L86.6252 96.2744Z" fill="white"/>
<path d="M94.5887 100.392L97.4771 97.8322L98.5213 99.0113L94.1462 102.889L87.5703 95.4646L91.9453 91.5869L92.7455 92.9825L90.1014 95.326L91.7102 97.1421L94.3543 94.7986L95.3984 95.9777L92.7543 98.3212L94.5887 100.392Z" fill="white"/>
<path d="M101.131 93.5399L103.452 90.4558L104.71 91.4034L101.194 96.0747L93.2734 90.1073L96.7898 85.436L97.8511 86.6443L95.7259 89.4673L97.6635 90.9272L99.7886 88.1043L101.046 89.0518L98.9212 91.8748L101.131 93.5395L101.131 93.5399Z" fill="white"/>
<path d="M26.2579 32.3363L34.3767 37.7708L33.3428 39.316L26.7805 34.923L31.8273 41.5812L30.8479 43.0451L22.77 40.9178L29.3324 45.3108L28.2985 46.8559L20.1797 41.4214L21.8276 38.9583L29.3167 40.9606L24.61 34.799L26.2579 32.3359V32.3363Z" fill="white"/>
<path d="M32.975 25.9585C33.3586 25.6476 33.8132 25.3723 34.338 25.1324C34.8632 24.8928 35.4271 24.771 36.0305 24.7681C36.6336 24.7652 37.263 24.9206 37.9191 25.2348C38.5748 25.5489 39.2228 26.1004 39.8617 26.89C40.5069 27.6865 40.9135 28.437 41.0814 29.1402C41.2493 29.8439 41.2665 30.4868 41.1326 31.069C40.9988 31.6516 40.7588 32.1727 40.4125 32.6335C40.0662 33.0943 39.7012 33.4802 39.3176 33.791C38.9339 34.1022 38.4812 34.3791 37.9589 34.6226C37.4367 34.8662 36.8753 34.9946 36.2745 35.0074C35.6736 35.0205 35.0468 34.8721 34.3936 34.5616C33.7404 34.2514 33.0916 33.6978 32.4462 32.9012C31.8069 32.112 31.4017 31.3638 31.2309 30.6565C31.0597 29.9495 31.0404 29.2997 31.1716 28.7069C31.3033 28.1144 31.5407 27.5859 31.8841 27.1215C32.2275 26.6574 32.591 26.2697 32.9746 25.9585H32.975ZM38.359 32.6065C38.6629 32.36 38.9014 32.0769 39.074 31.7569C39.2466 31.4369 39.3377 31.0906 39.3468 30.7168C39.356 30.3434 39.274 29.9422 39.1003 29.5132C38.9266 29.0843 38.6494 28.6344 38.268 28.1634C37.8986 27.707 37.5219 27.3497 37.1383 27.0908C36.7546 26.8318 36.378 26.6665 36.0079 26.5945C35.6378 26.5228 35.2772 26.5363 34.9257 26.6351C34.5743 26.7342 34.2466 26.9068 33.9427 27.1533C33.6388 27.3998 33.4018 27.6847 33.2321 28.0083C33.0624 28.332 32.9739 28.6853 32.9669 29.0689C32.96 29.4525 33.0415 29.857 33.2123 30.2823C33.3831 30.708 33.6563 31.1524 34.0315 31.6157C34.413 32.0864 34.7937 32.4496 35.1744 32.7048C35.5551 32.9605 35.9307 33.1207 36.3012 33.1858C36.672 33.2512 37.0315 33.2326 37.38 33.1302C37.7285 33.0274 38.0548 32.853 38.359 32.6065Z" fill="white"/>
<path d="M51.6074 26.6689L49.2617 27.7218L42.9835 22.4943L45.9853 29.192L44.2895 29.953L40.293 21.0355L42.6387 19.9826L48.911 25.1973L45.9151 18.512L47.6109 17.751L51.6074 26.6686V26.6689Z" fill="white"/>
<path d="M55.2436 24.2617L58.9703 23.5153L59.2745 25.037L53.6297 26.1675L51.7148 16.5835L57.3596 15.4531L57.3487 17.0381L53.9373 17.7213L54.4058 20.0659L57.8172 19.3827L58.1211 20.9045L54.7097 21.5876L55.244 24.2614L55.2436 24.2617Z" fill="white"/>
<path d="M63.6859 21.0834L60.3594 15.2671L62.3712 15.3L64.7212 19.3382L67.1905 15.379L69.2162 15.4123L65.5858 21.1145L65.5229 24.8894L63.623 24.8583L63.6859 21.0834Z" fill="white"/>
<path d="M81.6459 25.6296C81.4653 26.1394 81.2049 26.5318 80.8651 26.8068C80.5254 27.0822 80.1417 27.2651 79.7142 27.3554C79.2867 27.4461 78.8274 27.4589 78.3369 27.3934C77.8461 27.3283 77.3638 27.2113 76.8898 27.0431L74.2168 26.0948L77.4845 16.8828L80.3418 17.8966C80.7894 18.0553 81.1972 18.2495 81.5658 18.4792C81.9341 18.7088 82.2314 18.9776 82.4582 19.2856C82.6849 19.5935 82.829 19.9464 82.8904 20.3439C82.9519 20.7418 82.9014 21.1836 82.7387 21.67L82.7339 21.6832C82.581 22.1136 82.3645 22.4179 82.0844 22.5953C81.8039 22.7726 81.5278 22.8827 81.2561 22.9244C80.9309 22.9774 80.5938 22.9665 80.2449 22.8919C80.6241 23.0762 80.9394 23.3015 81.1906 23.5688C81.4071 23.7941 81.579 24.0753 81.7066 24.4121C81.8339 24.7493 81.8167 25.1461 81.6547 25.6029L81.6452 25.6292L81.6459 25.6296ZM77.8432 25.7346C78.0363 25.8029 78.2312 25.845 78.4287 25.8607C78.6255 25.8765 78.8131 25.856 78.9912 25.8008C79.1689 25.7452 79.3269 25.6479 79.4652 25.5089C79.6034 25.3699 79.7146 25.182 79.7987 24.9446C79.8828 24.7073 79.9135 24.4882 79.8909 24.2874C79.8682 24.0867 79.8031 23.9075 79.6959 23.7509C79.5884 23.594 79.4465 23.4573 79.271 23.3406C79.0951 23.2239 78.9016 23.1281 78.6909 23.0531L77.5324 22.6421L76.5928 25.2909L77.8436 25.7346H77.8432ZM78.0184 21.2714L79.1901 21.6872C79.3481 21.7432 79.5131 21.7794 79.6853 21.7962C79.8572 21.8126 80.0211 21.7965 80.1768 21.7479C80.3323 21.6993 80.4731 21.6155 80.5992 21.497C80.7251 21.3785 80.8242 21.2184 80.8958 21.0161C80.9708 20.8051 80.9964 20.6142 80.9734 20.4427C80.95 20.2712 80.8925 20.1198 80.8011 19.9885C80.7093 19.8572 80.585 19.7412 80.4277 19.641C80.2705 19.5408 80.0997 19.4578 79.9154 19.3927L78.8226 19.0051L78.0184 21.2718V21.2714Z" fill="white"/>
<path d="M88.1117 30.1909L84.9965 28.1897L83.0447 29.6781L81.2578 28.5305L89.5592 22.2461L91.6163 23.5674L89.3569 33.7332L87.57 32.5856L88.1113 30.1909H88.1117ZM88.5227 28.3608C88.6335 27.8781 88.729 27.4575 88.8098 27.0991C88.8903 26.7411 88.9751 26.3633 89.064 25.9661C89.1529 25.569 89.2297 25.2252 89.2948 24.9345L87.886 25.9906C87.7123 26.123 87.5401 26.2532 87.3693 26.3816C87.1981 26.51 87.0478 26.6237 86.9176 26.7232C86.7874 26.8223 86.6444 26.9327 86.489 27.0545L88.5227 28.3608Z" fill="white"/>
<path d="M100.145 30.7103C100.392 30.9641 100.606 31.2205 100.787 31.4797C100.967 31.739 101.119 31.9786 101.241 32.1976C101.383 32.45 101.505 32.6888 101.607 32.9144L100.515 33.9776C100.356 33.613 100.165 33.2564 99.942 32.9071C99.7197 32.5582 99.4684 32.2499 99.189 31.983C98.9092 31.7156 98.6057 31.501 98.2787 31.3382C97.9514 31.1758 97.6 31.0954 97.2248 31.0972C96.8492 31.099 96.4509 31.1974 96.03 31.3931C95.6087 31.5887 95.1713 31.9076 94.7174 32.3498C94.2566 32.7985 93.9227 33.2308 93.7165 33.6466C93.5098 34.0624 93.3986 34.4596 93.3837 34.8385C93.3683 35.2173 93.4378 35.5725 93.5914 35.9042C93.7446 36.2355 93.9549 36.5416 94.2211 36.8221C94.4874 37.1022 94.7953 37.3553 95.1446 37.5806C95.4938 37.8062 95.8552 37.9968 96.2285 38.1533L95.1267 39.2263C94.8908 39.1309 94.6487 39.0091 94.4003 38.861C94.178 38.7392 93.9395 38.5845 93.6854 38.3969C93.4308 38.2089 93.1803 37.988 92.9335 37.7346C92.7126 37.5074 92.5005 37.246 92.2968 36.9501C92.0934 36.6539 91.923 36.3324 91.7862 35.9846C91.6491 35.6368 91.5606 35.2649 91.52 34.8688C91.479 34.4728 91.5079 34.058 91.6063 33.6243C91.7043 33.1906 91.8886 32.7448 92.1581 32.2869C92.428 31.829 92.8066 31.3627 93.2941 30.888C93.775 30.4199 94.2475 30.0571 94.7123 29.7993C95.1768 29.5418 95.6273 29.3696 96.0632 29.2833C96.4992 29.1966 96.9143 29.179 97.3092 29.2302C97.7035 29.2814 98.0747 29.3787 98.4217 29.5217C98.7688 29.6647 99.0873 29.8417 99.3781 30.0531C99.6685 30.2645 99.9237 30.4835 100.145 30.7106L100.145 30.7103Z" fill="white"/>
<path d="M99.7826 47.2622L98.6368 45.4076L100.641 40.8322L100.134 40.0119L96.6389 42.1743L95.6621 40.5934L103.973 35.4521L104.95 37.0331L101.454 39.1956L101.968 40.0276L106.874 40.1476L108.035 42.0259L102.091 41.7424L99.7826 47.2622Z" fill="white"/>
<path d="M64.0019 98.754C83.0913 98.754 98.5663 83.269 98.5663 64.1673C98.5663 45.0656 83.0913 29.5806 64.0019 29.5806C44.9125 29.5806 29.4375 45.0656 29.4375 64.1673C29.4375 83.269 44.9125 98.754 64.0019 98.754Z" fill="white"/>
<path d="M64.0009 9.88248C67.683 9.88248 71.362 10.2537 74.9358 10.9855C78.4178 11.6983 81.8427 12.7625 85.1158 14.1474C88.3297 15.5075 91.4299 17.1913 94.3296 19.1519C97.2027 21.0942 99.9042 23.3247 102.36 25.7815C104.815 28.2384 107.044 30.9421 108.985 33.817C110.944 36.719 112.627 39.8209 113.987 43.0374C115.371 46.3124 116.434 49.7399 117.147 53.2244C117.878 56.8007 118.249 60.4823 118.249 64.1673C118.249 67.8522 117.878 71.5335 117.147 75.1102C116.434 78.5947 115.371 82.0222 113.987 85.2971C112.627 88.5132 110.945 91.6156 108.985 94.5175C107.044 97.3924 104.815 100.096 102.36 102.553C99.9042 105.01 97.2023 107.241 94.3296 109.183C91.4295 111.143 88.3297 112.827 85.1158 114.187C81.843 115.572 78.4181 116.636 74.9358 117.349C71.362 118.081 67.683 118.452 64.0009 118.452C60.3189 118.452 56.6399 118.081 53.0661 117.349C49.5841 116.636 46.1592 115.572 42.8861 114.187C39.6722 112.827 36.572 111.143 33.6723 109.183C30.7992 107.24 28.0977 105.01 25.6423 102.553C23.1869 100.096 20.9578 97.3924 19.0166 94.5175C17.0575 91.6156 15.3745 88.5136 14.0151 85.2971C12.6309 82.0218 11.5674 78.5947 10.855 75.1102C10.1236 71.5339 9.75272 67.8522 9.75272 64.1673C9.75272 60.4823 10.1236 56.8011 10.855 53.2244C11.5674 49.7399 12.6309 46.3124 14.0151 43.0374C15.3745 39.8213 17.0571 36.719 19.0166 33.817C20.9575 30.9421 23.1869 28.2388 25.6423 25.7815C28.0977 23.3247 30.7992 21.0938 33.6723 19.1519C36.5724 17.1913 39.6722 15.5075 42.8861 14.1474C46.1588 12.7621 49.5838 11.6983 53.0661 10.9855C56.6399 10.2537 60.3189 9.88248 64.0009 9.88248ZM64.0009 7.74927C32.8622 7.74927 7.61914 33.0084 7.61914 64.1673C7.61914 95.3261 32.8622 120.585 64.0009 120.585C95.1397 120.585 120.383 95.3261 120.383 64.1673C120.383 33.0084 95.1397 7.74927 64.0009 7.74927Z" fill="white"/>
<path d="M43.0326 74.7422H39.3626V57.34H35.6426V54.3477L43.0326 53.5925V74.7425V74.7422Z" fill="#333333"/>
<path d="M58.4888 66.5058C58.4888 69.3047 57.9336 71.428 56.8237 72.8755C55.7134 74.3234 54.2114 75.0471 52.3181 75.0471C50.4248 75.0471 48.8954 74.3234 47.7811 72.8755C46.6667 71.428 46.1094 69.3047 46.1094 66.5058V61.843C46.1094 59.0541 46.6645 56.9311 47.7748 55.4734C48.8848 54.016 50.3908 53.2871 52.2929 53.2871C54.195 53.2871 55.6926 54.016 56.8113 55.4734C57.93 56.9311 58.4892 59.0541 58.4892 61.843V66.5058H58.4888ZM54.8317 61.4027C54.8317 59.7292 54.6137 58.5026 54.1781 57.7236C53.7422 56.945 53.1139 56.5555 52.2929 56.5555C51.4718 56.5555 50.8351 56.9424 50.4076 57.7163C49.9805 58.4901 49.7665 59.7189 49.7665 61.4023V66.9023C49.7665 68.6054 49.9823 69.8437 50.4138 70.6176C50.8454 71.3914 51.4799 71.7787 52.3177 71.7787C53.1556 71.7787 53.763 71.3918 54.1906 70.6176C54.6177 69.8437 54.8317 68.6054 54.8317 66.9023V61.4023V61.4027Z" fill="#333333"/>
<path d="M73.2564 66.5058C73.2564 69.3047 72.7012 71.428 71.5913 72.8755C70.481 74.3234 68.979 75.0471 67.0857 75.0471C65.1924 75.0471 63.663 74.3234 62.5486 72.8755C61.4343 71.428 60.877 69.3047 60.877 66.5058V61.843C60.877 59.0541 61.4321 56.9311 62.5424 55.4734C63.6524 54.016 65.1584 53.2871 67.0605 53.2871C68.9625 53.2871 70.4601 54.016 71.5789 55.4734C72.6976 56.9311 73.2567 59.0541 73.2567 61.843V66.5058H73.2564ZM69.5989 61.4027C69.5989 59.7292 69.3809 58.5026 68.9453 57.7236C68.5098 56.945 67.8811 56.5555 67.0601 56.5555C66.2391 56.5555 65.6023 56.9424 65.1748 57.7163C64.7477 58.4901 64.5337 59.7189 64.5337 61.4023V66.9023C64.5337 68.6054 64.7495 69.8437 65.181 70.6176C65.6126 71.3914 66.2471 71.7787 67.085 71.7787C67.9228 71.7787 68.5303 71.3918 68.9578 70.6176C69.3849 69.8437 69.5985 68.6054 69.5985 66.9023V61.4023L69.5989 61.4027Z" fill="#333333"/>
<path d="M75.6445 57.6596C75.6445 56.4103 75.9942 55.3695 76.6941 54.5364C77.3937 53.7037 78.3676 53.2871 79.6162 53.2871C80.8647 53.2871 81.8617 53.7011 82.5573 54.5291C83.2525 55.3571 83.6003 56.4008 83.6003 57.6596V58.7779C83.6003 60.0272 83.2525 61.0637 82.5573 61.8865C81.8617 62.7097 80.89 63.1212 79.6414 63.1212C78.3929 63.1212 77.4044 62.7097 76.7004 61.8865C75.9964 61.0637 75.6445 60.0272 75.6445 58.7779V57.6596ZM78.0828 58.7779C78.0828 59.3397 78.2166 59.8118 78.485 60.1944C78.7531 60.5769 79.1386 60.7682 79.6414 60.7682C80.1443 60.7682 80.5023 60.5769 80.7664 60.1944C81.0304 59.8118 81.1624 59.3397 81.1624 58.7779V57.6596C81.1624 57.0982 81.0282 56.621 80.7601 56.2289C80.4917 55.8369 80.1106 55.6405 79.6166 55.6405C79.1225 55.6405 78.7432 55.8365 78.4792 56.2289C78.2151 56.621 78.0831 57.0982 78.0831 57.6596V58.7779H78.0828ZM80.2445 73.1586L78.4598 72.0691L87.3957 55.5384L89.1804 56.6279L80.2445 73.1586ZM84.3921 69.5559C84.3921 68.3165 84.7439 67.2804 85.4479 66.4473C86.1515 65.6146 87.1276 65.1981 88.3761 65.1981C89.6247 65.1981 90.611 65.612 91.3106 66.44C92.0103 67.268 92.3602 68.3066 92.3602 69.5559V70.6743C92.3602 71.9334 92.0124 72.9742 91.3172 73.7975C90.6216 74.6207 89.6499 75.0321 88.4014 75.0321C87.1528 75.0321 86.1621 74.6181 85.4541 73.7901C84.7461 72.9622 84.3921 71.9235 84.3921 70.6743V69.5559ZM86.8303 70.6743C86.8303 71.2261 86.9747 71.6983 87.264 72.0907C87.5529 72.4831 87.9322 72.6791 88.4014 72.6791C88.9459 72.6791 89.3354 72.4977 89.5702 72.1346C89.8046 71.7714 89.922 71.2846 89.922 70.6746V69.5563C89.922 69.0044 89.7878 68.5323 89.5197 68.1399C89.2513 67.7478 88.8702 67.5514 88.3761 67.5514C87.8821 67.5514 87.49 67.7475 87.226 68.1399C86.9619 68.5323 86.8303 69.004 86.8303 69.5563V70.6746V70.6743Z" fill="#333333"/>
</svg>
